<svg xmlns="http://www.w3.org/2000/svg" version="1.1" xmlns:xlink="http://www.w3.org/1999/xlink" width="1000"
  height="1000">
  <style>
    #light-icon {
      display: inline;
    }

    #dark-icon {
      display: none;
    }

    @media (prefers-color-scheme: dark) {
      #light-icon {
        display: none;
      }

      #dark-icon {
        display: inline;
      }
    }
  </style>
  <g id="light-icon"><svg xmlns="http://www.w3.org/2000/svg" version="1.1" xmlns:xlink="http://www.w3.org/1999/xlink"
      width="1000" height="1000">
      <g clip-path="url(#SvgjsClipPath1100)">
        <rect width="1000" height="1000" fill="#a5b9d4"></rect>
        <g transform="matrix(34.146341463414636,0,0,34.146341463414636,150,150)"><svg xmlns="http://www.w3.org/2000/svg"
            version="1.1" xmlns:xlink="http://www.w3.org/1999/xlink" width="20.5" height="20.5"><svg
              xmlns="http://www.w3.org/2000/svg" viewBox="2.5 1 20.5 20.5">
              <path fill="#152338"
                d="M9 2.5A1.5 1.5 0 0 1 10.5 4v.5h2a1.5 1.5 0 0 1 .928 2.678c-.237 1.942-1.053 3.802-2.329 5.442q.557.446 1.197.846l1.836-4.082a1.5 1.5 0 0 1 2.736 0l4.5 10a1.5 1.5 0 0 1-2.736 1.232L17.68 18.5h-4.36l-.952 2.116a1.5 1.5 0 0 1-2.736-1.232l1.423-3.162a16 16 0 0 1-2.057-1.445 16.6 16.6 0 0 1-4.441 2.616 1.5 1.5 0 1 1-1.114-2.786 13.6 13.6 0 0 0 3.459-1.986 12.2 12.2 0 0 1-1.512-2.515 1.5 1.5 0 1 1 2.745-1.212A9 9 0 0 0 9 10.414c.656-.935 1.101-1.925 1.327-2.914H4a1.5 1.5 0 1 1 0-3h3.5V4A1.5 1.5 0 0 1 9 2.5m6.5 11.155-.83 1.845h1.66zM19 1a1 1 0 0 1 .946.677l.13.378a3 3 0 0 0 1.869 1.87l.378.129a1 1 0 0 1 0 1.892l-.378.13a3 3 0 0 0-1.87 1.869l-.129.378a1 1 0 0 1-1.892 0l-.13-.378a3 3 0 0 0-1.87-1.87l-.377-.129a1 1 0 0 1 0-1.892l.378-.13a3 3 0 0 0 1.87-1.869l.129-.378A1 1 0 0 1 19 1">
              </path>
            </svg></svg></g>
      </g>
      <defs>
        <clipPath id="SvgjsClipPath1100">
          <rect width="1000" height="1000" x="0" y="0" rx="350" ry="350"></rect>
        </clipPath>
      </defs>
    </svg></g>
  <g id="dark-icon"><svg xmlns="http://www.w3.org/2000/svg" version="1.1" xmlns:xlink="http://www.w3.org/1999/xlink"
      width="1000" height="1000">
      <g clip-path="url(#SvgjsClipPath1101)">
        <rect width="1000" height="1000" fill="#b1c5e2"></rect>
        <g transform="matrix(34.146341463414636,0,0,34.146341463414636,150,150)"><svg xmlns="http://www.w3.org/2000/svg"
            version="1.1" xmlns:xlink="http://www.w3.org/1999/xlink" width="20.5" height="20.5"><svg
              xmlns="http://www.w3.org/2000/svg" viewBox="2.5 1 20.5 20.5">
              <path fill="#152338"
                d="M9 2.5A1.5 1.5 0 0 1 10.5 4v.5h2a1.5 1.5 0 0 1 .928 2.678c-.237 1.942-1.053 3.802-2.329 5.442q.557.446 1.197.846l1.836-4.082a1.5 1.5 0 0 1 2.736 0l4.5 10a1.5 1.5 0 0 1-2.736 1.232L17.68 18.5h-4.36l-.952 2.116a1.5 1.5 0 0 1-2.736-1.232l1.423-3.162a16 16 0 0 1-2.057-1.445 16.6 16.6 0 0 1-4.441 2.616 1.5 1.5 0 1 1-1.114-2.786 13.6 13.6 0 0 0 3.459-1.986 12.2 12.2 0 0 1-1.512-2.515 1.5 1.5 0 1 1 2.745-1.212A9 9 0 0 0 9 10.414c.656-.935 1.101-1.925 1.327-2.914H4a1.5 1.5 0 1 1 0-3h3.5V4A1.5 1.5 0 0 1 9 2.5m6.5 11.155-.83 1.845h1.66zM19 1a1 1 0 0 1 .946.677l.13.378a3 3 0 0 0 1.869 1.87l.378.129a1 1 0 0 1 0 1.892l-.378.13a3 3 0 0 0-1.87 1.869l-.129.378a1 1 0 0 1-1.892 0l-.13-.378a3 3 0 0 0-1.87-1.87l-.377-.129a1 1 0 0 1 0-1.892l.378-.13a3 3 0 0 0 1.87-1.869l.129-.378A1 1 0 0 1 19 1">
              </path>
            </svg></svg></g>
      </g>
      <defs>
        <clipPath id="SvgjsClipPath1101">
          <rect width="1000" height="1000" x="0" y="0" rx="350" ry="350"></rect>
        </clipPath>
      </defs>
    </svg></g>
</svg>