<svg xmlns="http://www.w3.org/2000/svg" viewBox="3.95 1.95 16.6 20.1">
    <path fill="url(#gradientSI)"
        d="M11.6 9.527a.68.68 0 0 1-.51.371l-1.454.212l1.052 1.025a.68.68 0 0 1 .195.6l-.249 1.448l1.3-.684a.68.68 0 0 1 .632 0l1.3.684l-.249-1.448a.68.68 0 0 1 .195-.6l1.052-1.025l-1.453-.212a.68.68 0 0 1-.51-.37L12.25 8.21zM4 4.5A2.5 2.5 0 0 1 6.5 2H18a2.5 2.5 0 0 1 2.5 2.5v14.25a.75.75 0 0 1-.75.75H5.5a1 1 0 0 0 1 1h13.25a.75.75 0 0 1 0 1.5H6.5A2.5 2.5 0 0 1 4 19.5zm6.542 4.108l-2.46.357a.678.678 0 0 0-.377 1.157l1.78 1.735l-.42 2.45a.678.678 0 0 0 .984.716l2.201-1.157l2.2 1.157a.678.678 0 0 0 .985-.715l-.42-2.45l1.78-1.736a.678.678 0 0 0-.376-1.157l-2.46-.357l-1.1-2.23a.678.678 0 0 0-1.217 0z">
    </path>
    <defs>
        <linearGradient id="gradientSI" x1="6.357" x2="14.586" y1="12.633" y2="8.988" gradientUnits="userSpaceOnUse">
            <stop stop-color="#d373fc"></stop>
            <stop offset="1" stop-color="#7a47e0"></stop>
        </linearGradient>
    </defs>
</svg>