<svg fill="none" xmlns="http://www.w3.org/2000/svg" viewBox="1.25 1.25 21.5 21.5">
  <g stroke-width="0" />
  <g stroke-linecap="round" stroke-linejoin="round" />
  <g stroke="url(#gradientT)" stroke-width="1.5" stroke-linecap="round" stroke-linejoin="round">
    <path d="m19.06 18.67-2.14-4.27-2.14 4.27m.39-.76h3.52" />
    <path
      d="M16.92 22a5.08 5.08 0 1 1 .001-10.162A5.08 5.08 0 0 1 16.92 22M5.02 2h3.92c2.07 0 3.07 1 3.02 3.02v3.92c.05 2.07-.95 3.07-3.02 3.02H5.02C3 12 2 11 2 8.93V5.01C2 3 3 2 5.02 2m3.99 3.85H4.95m2.019-.68v.68" />
    <path d="M7.99 5.84c0 1.75-1.37 3.17-3.05 3.17" />
    <path d="M9.01 9.01c-.73 0-1.39-.39-1.85-1.01" />
    <path opacity=".6" stroke="url(#gradientT)"
      d="M2 15c0 3.87 3.13 7 7 7l-1.05-1.75M22 9c0-3.87-3.13-7-7-7l1.05 1.75" />
  </g>
  <linearGradient id="gradientT" x1="5" x2="16.5" y1="5" y2="16.5" gradientUnits="userSpaceOnUse">
    <stop stop-color="#0067bf" />
    <stop offset="1" stop-color="#0fafff" />
  </linearGradient>
</svg>